<?xml version="1.0" encoding="UTF-8"?>
<!DOCTYPE svg PUBLIC "-//W3C//DTD SVG 1.1//EN" "http://www.w3.org/Graphics/SVG/1.1/DTD/svg11.dtd">
<svg xmlns="http://www.w3.org/2000/svg" version="1.1" width="1024px" height="1024px" style="shape-rendering:geometricPrecision; text-rendering:geometricPrecision; image-rendering:optimizeQuality; fill-rule:evenodd; clip-rule:evenodd" xmlns:xlink="http://www.w3.org/1999/xlink">
<g><path style="opacity:0.998" fill="#ffa000" d="M 1023.5,479.5 C 1023.5,501.833 1023.5,524.167 1023.5,546.5C 1010.11,698.808 944.106,822.642 825.5,918C 746.577,978.109 657.577,1013.28 558.5,1023.5C 527.5,1023.5 496.5,1023.5 465.5,1023.5C 309.52,1005.46 185.353,933.455 93,807.5C 7.26288,681.113 -19.0705,543.113 14,393.5C 52.3102,247.568 136.81,137.402 267.5,63C 387.039,0.124829 512.372,-14.8752 643.5,18C 797.899,62.7388 909.732,157.572 979,302.5C 1004.05,359.042 1018.89,418.042 1023.5,479.5 Z"/></g>
<g><path style="opacity:1" fill="#fffefb" d="M 217.5,268.5 C 220.978,268.184 224.312,268.684 227.5,270C 267.087,297.377 306.587,324.877 346,352.5C 348.833,357.5 351.667,362.5 354.5,367.5C 504.499,368.333 654.499,368.833 804.5,369C 810.777,371.389 812.943,375.889 811,382.5C 768.667,466.5 726.333,550.5 684,634.5C 683.167,635.333 682.333,636.167 681.5,637C 577.914,638.662 474.247,638.995 370.5,638C 368.333,637.167 366.833,635.667 366,633.5C 357.399,549.161 348.733,464.828 340,380.5C 337.085,375.002 333.919,369.668 330.5,364.5C 292.304,337.805 253.971,311.305 215.5,285C 212.171,280.863 211.671,276.363 214,271.5C 215.145,270.364 216.312,269.364 217.5,268.5 Z"/></g>
<g><path style="opacity:1" fill="#feb83f" d="M 360.5,388.5 C 502.334,387.167 644.334,387.167 786.5,388.5C 786.376,389.107 786.043,389.44 785.5,389.5C 644.001,388.5 502.334,388.167 360.5,388.5 Z"/></g>
<g><path style="opacity:1" fill="#ffa000" d="M 360.5,388.5 C 502.334,388.167 644.001,388.5 785.5,389.5C 779.244,403.178 772.578,416.678 765.5,430C 631.834,430.5 498.167,430.667 364.5,430.5C 363.035,416.514 361.701,402.514 360.5,388.5 Z"/></g>
<g><path style="opacity:1" fill="#ffb840" d="M 366.5,450.5 C 496.001,449.168 625.667,449.168 755.5,450.5C 755.376,451.107 755.043,451.44 754.5,451.5C 625.334,450.5 496.001,450.167 366.5,450.5 Z"/></g>
<g><path style="opacity:1" fill="#ffa000" d="M 366.5,450.5 C 496.001,450.167 625.334,450.5 754.5,451.5C 747.18,466.14 739.847,480.807 732.5,495.5C 611.623,496.162 490.956,495.495 370.5,493.5C 369.365,479.146 368.031,464.813 366.5,450.5 Z"/></g>
<g><path style="opacity:1" fill="#ffb840" d="M 370.5,493.5 C 490.956,495.495 611.623,496.162 732.5,495.5C 612.001,496.5 491.334,496.833 370.5,496.5C 370.5,495.5 370.5,494.5 370.5,493.5 Z"/></g>
<g><path style="opacity:1" fill="#ffe6be" d="M 722.5,515.5 C 606.167,515.5 489.833,515.5 373.5,515.5C 373.5,517.167 373.5,518.833 373.5,520.5C 372.539,518.735 372.205,516.735 372.5,514.5C 489.335,514.167 606.001,514.5 722.5,515.5 Z"/></g>
<g><path style="opacity:1" fill="#ffa000" d="M 722.5,515.5 C 714.974,530.718 707.308,545.885 699.5,561C 592.167,561.5 484.834,561.667 377.5,561.5C 376.101,547.841 374.767,534.174 373.5,520.5C 373.5,518.833 373.5,517.167 373.5,515.5C 489.833,515.5 606.167,515.5 722.5,515.5 Z"/></g>
<g><path style="opacity:1" fill="#ffb840" d="M 379.5,581.5 C 482.667,580.168 586.001,580.168 689.5,581.5C 689.376,582.107 689.043,582.44 688.5,582.5C 585.668,581.501 482.668,581.167 379.5,581.5 Z"/></g>
<g><path style="opacity:1" fill="#ffa108" d="M 379.5,581.5 C 482.668,581.167 585.668,581.501 688.5,582.5C 682.321,595.025 675.987,607.525 669.5,620C 574.167,620.667 478.833,620.667 383.5,620C 382.072,607.223 380.739,594.389 379.5,581.5 Z"/></g>
<g><path style="opacity:1" fill="#fffdfa" d="M 415.5,661.5 C 444.438,658.377 463.938,670.377 474,697.5C 478.569,728.212 466.069,748.045 436.5,757C 406.897,760.451 387.73,747.951 379,719.5C 375.779,690.242 387.945,670.909 415.5,661.5 Z"/></g>
<g><path style="opacity:1" fill="#fffdfa" d="M 639.5,661.5 C 668.991,658.316 688.491,670.649 698,698.5C 701.676,727.996 689.51,747.496 661.5,757C 632.004,760.676 612.504,748.51 603,720.5C 599.446,690.917 611.612,671.25 639.5,661.5 Z"/></g>
<g><path style="opacity:1" fill="#ffa004" d="M 418.5,680.5 C 437.41,677.866 449.91,685.533 456,703.5C 457.584,719.932 450.751,731.432 435.5,738C 416.728,741.536 404.228,734.37 398,716.5C 395.381,698.985 402.214,686.985 418.5,680.5 Z"/></g>
<g><path style="opacity:1" fill="#ffa003" d="M 642.5,680.5 C 660.362,677.842 672.529,684.842 679,701.5C 682.15,719.375 675.316,731.541 658.5,738C 640.625,741.15 628.459,734.316 622,717.5C 618.977,699.535 625.81,687.202 642.5,680.5 Z"/></g>
</svg>
